<svg width="62" height="62" viewBox="0 0 62 62" fill="none" xmlns="http://www.w3.org/2000/svg">
<path d="M61.5865 20.1876C61.4222 19.8396 61.0808 19.1156 60.2898 18.6641C59.6169 18.28 59.008 18.3024 58.2371 18.3306C58.0223 18.3385 57.8001 18.3467 57.5508 18.3478C56.8768 18.3713 56.2032 18.2922 55.557 18.1139C55.1477 17.9858 54.7129 17.9422 54.2834 17.9861C52.8347 18.1424 52.1433 19.1164 51.4749 20.0583C50.8232 20.9765 50.1493 21.9258 48.7183 22.393C48.6075 22.4292 45.9864 23.2669 44.4585 22.1825C44.1012 21.9077 43.8046 21.5719 43.5851 21.1935C43.318 20.7878 43.0412 20.3687 42.4904 20.396C41.8207 20.4293 41.6522 21.0818 41.4892 21.7129C41.3296 22.3314 41.131 23.1011 40.5276 23.4976C39.4353 24.2157 37.1227 23.6311 35.6065 22.6779C35.2584 22.4619 34.944 22.2028 34.6723 21.9078C34.3257 21.5228 33.8957 21.2089 33.4098 20.9864C32.5254 20.565 31.9184 20.5391 31.2759 20.5118C30.6953 20.5044 30.1189 20.42 29.5644 20.2611C28.2706 19.8871 26.3168 18.9325 26.2368 17.8349C26.2108 17.4795 26.3847 17.2452 26.6703 16.8925C26.957 16.5386 27.2821 16.1376 27.2733 15.5358C27.2544 14.2226 25.3649 13.3798 23.6976 12.6364C22.9931 12.3221 21.6887 11.7404 21.6223 11.4619C21.7097 11.3717 22.0933 11.2447 22.326 11.1674C22.9798 10.9507 23.8749 10.654 24.1453 9.86386C24.3532 9.25603 24.0416 8.79289 23.7911 8.42069C23.5894 8.12077 23.3987 7.83744 23.4059 7.45773C23.4202 6.70581 24.1905 6.16627 24.9354 5.64465C25.6479 5.14543 26.3848 4.62938 26.2209 3.89672C26.097 3.34326 25.4625 2.87842 24.4345 2.58783C23.5108 2.33396 22.5414 2.25286 21.5832 2.3493C20.9387 2.41887 20.3128 2.59344 19.7344 2.86486C19.2998 3.05193 19.0372 3.16515 18.6086 3.09177C18 2.98776 17.7173 2.61144 17.3263 2.09055C16.9748 1.62232 16.5764 1.09162 15.8564 0.670744C14.0202 -0.402886 11.1237 -0.0605887 9.33067 0.806355C8.73692 1.09356 8.02337 1.56372 7.9966 2.17252C7.96472 2.89392 8.85082 3.30463 9.78914 3.73931C10.6655 4.14542 11.6588 4.60553 11.668 5.18152C11.672 5.42949 11.4995 5.59683 11.1945 5.87132C11.0674 5.9816 10.9473 6.09842 10.8345 6.22124C10.6487 6.45781 10.5237 6.73031 10.469 7.01808L10.4569 7.06591C10.2299 7.93104 11.0123 8.5293 11.8406 9.16256C12.5993 9.7429 13.4594 10.4006 13.76 11.358C14.0963 12.4296 13.762 13.9068 12.9989 14.721C12.9029 14.8213 12.8006 14.9164 12.6927 15.0058C12.4309 15.216 12.207 15.4633 12.0294 15.7384C11.7535 16.165 11.5791 16.6408 11.5177 17.1343C11.4652 17.4398 11.4274 17.6607 11.2447 17.8899C11.0839 18.0915 10.96 18.1236 10.6289 18.2093C10.1894 18.3143 9.76648 18.4713 9.37056 18.6763C8.69411 19.0221 8.12041 19.5163 7.70019 20.1154C7.39839 20.5049 7.19894 20.7622 6.70531 20.9002C6.38322 20.9838 6.04374 20.9928 5.71699 20.9264C5.30497 20.8698 4.83824 20.8054 4.29028 21.1352C3.58696 21.5582 3.00817 22.5137 3.25669 23.3806C3.42478 23.9672 3.89178 24.2027 4.26718 24.392C4.60257 24.5611 4.91933 24.7208 5.14646 25.1312C5.25175 25.3337 5.32036 25.5508 5.34958 25.7739C5.41519 26.1241 5.48972 26.5213 5.91749 26.9589C6.02463 27.067 6.1409 27.1671 6.26521 27.2582C6.30437 27.286 6.34154 27.3161 6.37648 27.3483C6.37645 27.5628 6.29322 27.7702 6.14187 27.933C6.09751 27.9925 6.0404 28.0429 5.97407 28.0813C5.90774 28.1196 5.8336 28.1449 5.75622 28.1558C4.1342 28.1766 2.51186 28.154 0.891262 28.088C0.749272 28.0822 0.607956 28.1092 0.480143 28.1665C0.352329 28.2239 0.242066 28.3098 0.159362 28.4165C0.0766584 28.5231 0.0241326 28.6472 0.00655323 28.7773C-0.0110261 28.9074 0.00689758 29.0396 0.0586972 29.1617C0.438915 30.0941 1.11855 30.8971 2.00671 31.4633C2.89487 32.0296 3.94922 32.3322 5.02876 32.3305C4.94384 32.402 4.8513 32.4654 4.75255 32.5197C4.52605 32.638 4.276 32.7128 4.01738 32.7398C3.75876 32.7668 3.4969 32.7453 3.24751 32.6766C3.09119 32.6384 2.92633 32.642 2.77218 32.6871C2.61803 32.7322 2.48097 32.8168 2.37703 32.9311C2.27308 33.0454 2.20654 33.1846 2.18518 33.3325C2.16383 33.4805 2.18854 33.6309 2.25643 33.7663C3.03979 35.3169 4.71883 36.2885 6.3383 36.1268C7.10447 36.0398 7.82061 35.7295 8.38264 35.2412C8.38592 35.3894 8.3934 35.5436 8.4014 35.7086C8.44317 36.3256 8.43426 36.9446 8.37477 37.5603C8.3048 38.4665 8.36262 39.3773 8.54679 40.2697C8.79177 41.4371 9.23712 42.0706 9.63011 42.6296C9.99791 43.1527 10.3155 43.6043 10.4866 44.4615C10.6011 44.9364 10.5867 45.4301 10.4446 45.8986C10.2772 46.4326 10.276 46.9994 10.4413 47.534C10.7184 48.5508 11.2232 49.0228 11.7576 49.5228C12.2427 49.9765 12.7444 50.4457 13.2115 51.451C13.421 51.8949 13.5682 52.3616 13.6498 52.8398C13.7423 53.4562 13.9848 54.0452 14.3591 54.5628C14.5749 54.8694 14.8152 55.1606 15.0781 55.4341C15.4418 55.8201 15.7788 56.2269 16.0871 56.652C16.3192 56.9697 16.5326 57.2989 16.7261 57.6379C16.86 57.8653 16.9984 58.1005 17.1996 58.3938C19.0805 61.1377 19.8007 62 20.6642 62C20.728 61.9997 20.7918 61.9953 20.855 61.9867C22.732 61.7342 23.6564 57.6807 23.6655 57.6399C23.7021 57.4756 23.7319 57.3167 23.761 57.1613C23.8708 56.576 23.9576 56.1137 24.3601 55.5824C24.5204 55.3747 24.7058 55.1844 24.9126 55.0152C25.1788 54.7846 25.4541 54.5463 25.5574 54.0838C25.6751 53.5574 25.4736 53.1827 25.296 52.8522C25.1292 52.5836 25.0262 52.2854 24.9937 51.9774C24.9651 51.6253 25.0523 51.437 25.2107 51.0953C25.3293 50.8481 25.4329 50.5951 25.521 50.3373C25.9183 49.1519 25.7781 48.3029 25.6756 47.683C25.5854 47.1376 25.555 46.8862 25.7777 46.6413C25.9989 46.3982 26.2821 46.3755 26.8051 46.3538C27.4246 46.3283 28.1956 46.2962 28.9843 45.6734C29.3618 45.3781 29.6501 44.9976 29.8211 44.5691C29.9719 44.1951 30.2185 43.8602 30.5399 43.5932C30.8524 43.3196 31.2259 43.1124 31.6342 42.986C32.1826 42.8078 32.6854 42.5275 33.1113 42.1624C33.4572 41.8873 33.7389 41.5503 33.9393 41.1717C34.1013 40.8632 34.3275 40.5871 34.605 40.3591C34.9582 40.0516 35.3573 39.7923 35.7901 39.5891C36.3296 39.3439 36.8093 38.9997 37.1998 38.5776C37.4242 38.3411 37.6051 38.0721 37.7352 37.7815C37.853 37.5369 37.9867 37.299 38.1357 37.0693C39.3315 35.2059 40.426 34.2602 41.3888 34.2594H41.3901C41.8301 34.2594 42.1277 34.4703 42.4156 34.6743C42.7075 34.8811 43.1071 35.1643 43.5589 34.9102C44.2563 34.5174 44.0738 33.5512 43.633 31.2171C43.4591 30.2963 43.2428 29.1502 43.0263 27.7644C42.9418 27.224 42.7524 26.0112 42.878 25.6608C42.9611 25.7126 43.0793 25.8026 43.1726 25.8737C43.7082 26.3158 44.3394 26.6479 45.0245 26.848C45.5771 26.9903 46.1497 27.0552 46.7231 27.0405C47.3421 27.0467 47.8765 27.052 48.5705 27.4018C48.7515 27.4788 48.9136 27.5891 49.0468 27.7258C49.0138 27.8063 48.789 27.9859 48.6378 28.1066C48.2522 28.4146 47.7239 28.8365 47.4265 29.5369C47.1379 30.2159 47.0222 31.3609 47.6894 31.6625C48.2584 31.9196 48.8306 31.4173 49.4369 30.8859C49.4505 30.8738 49.4645 30.8615 49.4791 30.8489C49.3341 31.3758 49.2198 32.0568 49.5456 32.7273C49.8453 33.3161 50.377 33.7773 51.0323 34.0171C51.1854 34.0771 51.3502 34.1077 51.5165 34.1071C51.6829 34.1065 51.8474 34.0746 52 34.0135C52.3785 33.8403 52.6084 33.4409 52.6622 31.9103C52.6957 31.267 52.6633 30.6222 52.5655 29.9845C52.5196 29.6728 52.504 29.5679 52.5826 29.3558C52.7529 28.8961 53.0899 28.7262 53.6 28.4691C54.1462 28.1937 54.826 27.851 55.3885 27.0307C55.7165 26.5712 55.8851 26.0304 55.8719 25.4804C55.8666 25.3051 55.8904 25.1301 55.9425 24.9615C55.9933 24.8347 56.0664 24.7165 56.1589 24.6117L56.183 24.5811C56.3203 24.407 57.5835 22.8764 59.666 22.7743C59.9449 22.763 60.2242 22.7739 60.5011 22.8068C60.9039 22.8465 61.3204 22.8879 61.6664 22.5505C62.1365 22.0916 62.1098 21.2966 61.5865 20.1876ZM60.999 21.9683C60.9682 21.998 60.8277 21.9864 60.5992 21.964C60.2736 21.9264 59.9451 21.9143 59.6173 21.9279C57.1101 22.0508 55.6034 23.8752 55.4399 24.0828L55.4172 24.1115C55.2689 24.2853 55.1525 24.4805 55.0727 24.6891C54.9901 24.9372 54.95 25.1957 54.9538 25.4553C54.9716 25.8533 54.8521 26.2462 54.6124 26.5775C54.177 27.2124 53.6597 27.4731 53.1597 27.7252C52.5891 28.0128 51.9993 28.3102 51.7134 29.0816C51.5645 29.4836 51.6027 29.7417 51.6555 30.099C51.7466 30.6897 51.7763 31.287 51.7442 31.8829C51.7099 32.8583 51.6036 33.1722 51.5605 33.2611C51.3497 33.283 50.6701 32.9701 50.3837 32.3806C50.1237 31.8454 50.3167 31.2177 50.4577 30.7593C50.5846 30.3469 50.7282 29.8795 50.3032 29.6408C49.828 29.3735 49.3536 29.7898 48.8042 30.2713C48.5908 30.4673 48.3632 30.6497 48.123 30.8171C48.0946 30.4865 48.1489 30.1543 48.2817 29.8462C48.4965 29.3406 48.891 29.0254 49.2389 28.7474C49.6352 28.431 50.0451 28.1037 49.9575 27.5838C49.9017 27.2536 49.592 26.9508 49.0108 26.6578C48.1156 26.2068 47.4128 26.1998 46.7331 26.1932C46.2459 26.2084 45.7589 26.1555 45.2888 26.0364C44.7207 25.8689 44.1983 25.5904 43.7573 25.2199C43.3899 24.9402 42.9735 24.6232 42.4775 24.8536C41.7375 25.1975 41.8586 26.2297 42.1171 27.8853C42.3355 29.2835 42.5532 30.4362 42.7281 31.3625C42.9534 32.5559 43.1677 33.6907 43.0996 34.0889C43.0578 34.0604 43.0162 34.0314 42.9751 34.0021C42.6432 33.7669 42.1421 33.4118 41.3901 33.4118H41.3878C39.4139 33.4137 37.857 35.8401 37.3454 36.6374C37.1798 36.893 37.0309 37.1576 36.8995 37.4297C36.8042 37.6489 36.6691 37.8515 36.4998 38.0288C36.0985 38.4644 35.7666 38.6332 35.3465 38.8469C34.8442 39.0846 34.3813 39.3871 33.9716 39.7453C33.6213 40.0373 33.3342 40.3878 33.1256 40.7785C32.9757 41.0691 32.7604 41.3269 32.4941 41.5348C32.1499 41.8304 31.7423 42.0562 31.2977 42.1974C30.7817 42.3628 30.3098 42.6274 29.9129 42.9737C29.4985 43.3209 29.1779 43.7529 28.977 44.235C28.8619 44.5442 28.658 44.8188 28.387 45.0295C27.8385 45.4626 27.3166 45.4842 26.7639 45.5071C26.2019 45.5305 25.565 45.5568 25.0742 46.0964C24.5749 46.6453 24.6685 47.2113 24.7676 47.8108C24.8665 48.4092 24.9786 49.0875 24.6436 50.0869C24.5647 50.3165 24.4721 50.5419 24.3662 50.7621C24.1871 51.1483 24.0324 51.4821 24.0776 52.0407C24.1181 52.4579 24.2528 52.8627 24.4731 53.229C24.6341 53.5284 24.7093 53.6825 24.6579 53.9126C24.6155 54.1023 24.5286 54.1853 24.2839 54.3971C24.0308 54.6062 23.8038 54.8409 23.6074 55.0968C23.0875 55.7831 22.9698 56.4102 22.856 57.0168C22.8285 57.1636 22.8004 57.3138 22.7657 57.469C22.3966 59.1257 21.4444 61.0508 20.7226 61.1481C20.3005 61.1995 19.4318 60.0646 17.9758 57.9406C17.791 57.671 17.6658 57.4584 17.5332 57.2333C17.3256 56.8704 17.097 56.5182 16.8484 56.1779C16.5213 55.7266 16.1637 55.2947 15.7777 54.8849C15.542 54.6411 15.3266 54.3811 15.1336 54.1072C14.8228 53.6821 14.624 53.1958 14.5532 52.6871C14.4596 52.1465 14.2924 51.619 14.0556 51.1171C13.6792 50.2893 13.1192 49.5435 12.4115 48.9276C11.9102 48.4586 11.5481 48.1199 11.332 47.3272C11.2045 46.9245 11.2067 46.4962 11.3383 46.0946C11.5111 45.5116 11.5288 44.8986 11.3898 44.3079C11.1855 43.2848 10.7865 42.7172 10.4006 42.1684C10.0196 41.6262 9.65963 41.1142 9.44864 40.1088C9.28291 39.2957 9.22934 38.4665 9.28921 37.6409C9.35244 36.9858 9.36236 36.3272 9.31887 35.6707C9.29924 35.3922 9.29548 35.1129 9.30758 34.834C9.31865 34.6958 9.28204 34.5579 9.20302 34.4401C9.12399 34.3223 9.00659 34.2305 8.86761 34.178C8.77823 34.1431 8.68218 34.1249 8.58511 34.1247C8.48378 34.125 8.38367 34.1451 8.29142 34.1838C8.19917 34.2225 8.11688 34.2788 8.05001 34.3491C7.68077 34.7305 7.06694 35.2021 6.24015 35.2842C5.04503 35.4019 3.79389 34.685 3.15211 33.5277C3.79831 33.6789 4.48216 33.6065 5.07439 33.324C5.66663 33.0416 6.1262 32.5687 6.36625 31.9948C6.39745 31.9243 6.4075 31.8473 6.39533 31.772C6.38316 31.6967 6.34922 31.6258 6.29708 31.5668C6.24494 31.5078 6.17653 31.4628 6.09904 31.4366C6.02156 31.4104 5.93785 31.404 5.85673 31.418C4.76633 31.6007 3.6412 31.405 2.69771 30.8685C1.91096 30.4099 1.30008 29.7349 0.951228 28.9388C2.55619 29.0026 4.16279 29.0241 5.76908 29.0033C5.98289 28.994 6.19172 28.9406 6.38026 28.8471C6.5688 28.7536 6.73228 28.6223 6.8587 28.463C7.19474 28.0757 7.36231 27.5582 7.2757 27.175C7.21548 26.9419 7.06301 26.7379 6.8482 26.6031C6.75927 26.5387 6.67607 26.4677 6.59942 26.391C6.34945 26.1355 6.31179 25.9342 6.25471 25.6294C6.21064 25.3222 6.11261 25.0236 5.96446 24.7455C5.60821 24.1024 5.08781 23.8399 4.70781 23.6483C4.36389 23.4748 4.20919 23.3887 4.14463 23.1637C4.02352 22.7416 4.32597 22.1254 4.79179 21.8451C5.03716 21.6976 5.21115 21.7136 5.58131 21.7647C6.04259 21.8509 6.51962 21.8326 6.97154 21.7113C7.76435 21.4897 8.11155 21.0417 8.44733 20.6084C8.75569 20.2104 9.0748 19.7988 9.81788 19.4166C10.1508 19.2438 10.507 19.1122 10.8772 19.0253C11.2676 18.9242 11.6363 18.8286 11.9844 18.392C12.2997 17.9968 12.3632 17.6256 12.4247 17.2668C12.4678 16.8812 12.6013 16.5089 12.8162 16.1758C12.9499 15.9688 13.1193 15.7834 13.3178 15.6267C13.4503 15.5165 13.5759 15.3992 13.6937 15.2756C14.6713 14.2324 15.0702 12.4856 14.6422 11.1223C14.2629 9.91435 13.2447 9.1358 12.4266 8.51005C11.6993 7.9538 11.2639 7.59237 11.3496 7.26533L11.3637 7.20963C11.3929 7.04991 11.4544 6.8967 11.5451 6.758C11.6364 6.65994 11.7335 6.56649 11.8357 6.47806C12.1746 6.17329 12.5962 5.79383 12.5863 5.16917C12.5692 4.07895 11.2563 3.47051 10.2013 2.98183C9.81394 2.80238 8.90659 2.38187 8.91433 2.20691C8.91643 2.15787 9.07323 1.88773 9.757 1.55718C11.0978 0.909032 13.724 0.42737 15.3649 1.38658C15.9274 1.71556 16.2548 2.15157 16.5713 2.57318C17.0084 3.15546 17.4604 3.7576 18.4413 3.92505C19.1595 4.04831 19.6275 3.84623 20.1229 3.63276C20.6123 3.4008 21.1427 3.25126 21.689 3.19118C23.4191 3.00604 25.2174 3.60322 25.3213 4.06817C25.3681 4.27728 24.8203 4.66111 24.3801 4.96938C23.5467 5.55299 22.5096 6.27948 22.4876 7.44296C22.4758 8.07222 22.7723 8.51332 23.0107 8.86772C23.2571 9.23399 23.3432 9.39273 23.2692 9.60874C23.136 9.99826 22.5664 10.1871 22.0156 10.3697C21.4147 10.5688 20.7936 10.7749 20.7104 11.3377C20.5844 12.1891 21.782 12.7232 23.298 13.3993C24.5833 13.9726 26.3435 14.7579 26.3549 15.5472C26.3592 15.8457 26.1981 16.06 25.9347 16.3851C25.6386 16.7504 25.2703 17.2052 25.3203 17.8919C25.4672 19.9082 28.8992 20.957 29.2899 21.07C29.9195 21.2511 30.574 21.3482 31.2334 21.3584C31.8195 21.3834 32.2824 21.4032 32.9885 21.7395C33.3753 21.9151 33.7165 22.1656 33.9888 22.474C34.3094 22.8201 34.6797 23.1243 35.0893 23.3783C35.974 23.9243 36.9588 24.3178 37.9957 24.5397C39.26 24.7964 40.3198 24.6749 41.0605 24.1881C41.9445 23.607 42.1979 22.6257 42.3828 21.9093C42.43 21.7036 42.4915 21.501 42.567 21.3027C42.6375 21.3866 42.7284 21.5245 42.8002 21.6336C43.0779 22.1019 43.4507 22.5163 43.8985 22.8543C45.7849 24.1934 48.6986 23.2983 49.0247 23.1922C50.7478 22.6295 51.5423 21.5102 52.2433 20.5225C52.8715 19.6374 53.3678 18.9383 54.3901 18.828C54.7012 18.7974 55.0158 18.8323 55.3102 18.9302C56.039 19.1258 56.7963 19.2153 57.555 19.1954C57.8205 19.1942 58.0612 19.1853 58.2736 19.1776C58.9588 19.1524 59.3726 19.1371 59.8065 19.3849C60.3532 19.6969 60.598 20.2158 60.7442 20.5259C61.1763 21.4417 61.0998 21.8697 60.999 21.9683Z" fill="white"/>
</svg>
